<svg width="500" height="150" viewBox="0 0 500 150" fill="none" xmlns="http://www.w3.org/2000/svg">
<path d="M127.462 45.6743C136.576 45.6743 143.903 48.489 149.443 54.1183C155.072 59.6583 157.887 67.4321 157.887 77.4398V121H139.123V79.9864C139.123 74.1784 137.648 69.7553 134.699 66.7173C131.751 63.5899 127.73 62.0262 122.637 62.0262C117.543 62.0262 113.478 63.5899 110.44 66.7173C107.491 69.7553 106.017 74.1784 106.017 79.9864V121H87.2524V79.9864C87.2524 74.1784 85.778 69.7553 82.8293 66.7173C79.8806 63.5899 75.8597 62.0262 70.7665 62.0262C65.5839 62.0262 61.4736 63.5899 58.4356 66.7173C55.4869 69.7553 54.0126 74.1784 54.0126 79.9864V121H35.2482V46.7466H54.0126V55.7267C56.4251 52.5993 59.5079 50.1421 63.2607 48.355C67.103 46.5679 71.3026 45.6743 75.8597 45.6743C81.6677 45.6743 86.8503 46.9253 91.4073 49.4272C95.9644 51.8398 99.4939 55.3246 101.996 59.8817C104.408 55.5927 107.893 52.1525 112.45 49.5613C117.097 46.97 122.101 45.6743 127.462 45.6743ZM244.719 82.2649C244.719 84.9456 244.541 87.3581 244.183 89.5026H189.901C190.347 94.8639 192.224 99.0635 195.53 102.102C198.836 105.14 202.902 106.659 207.727 106.659C214.696 106.659 219.655 103.665 222.604 97.6785H242.843C240.698 104.827 236.588 110.724 230.512 115.371C224.436 119.928 216.975 122.206 208.129 122.206C200.98 122.206 194.547 120.643 188.828 117.515C183.199 114.298 178.776 109.786 175.559 103.978C172.432 98.17 170.868 91.4684 170.868 83.8733C170.868 76.1888 172.432 69.4426 175.559 63.6346C178.687 57.8265 183.065 53.3588 188.694 50.2314C194.324 47.104 200.802 45.5403 208.129 45.5403C215.188 45.5403 221.487 47.0593 227.027 50.0974C232.657 53.1354 236.99 57.4691 240.028 63.0984C243.156 68.6384 244.719 75.0272 244.719 82.2649ZM225.285 76.9037C225.195 72.0785 223.453 68.2363 220.058 65.377C216.662 62.4283 212.507 60.9539 207.593 60.9539C202.946 60.9539 199.015 62.3836 195.798 65.2429C192.67 68.0129 190.749 71.8998 190.035 76.9037H225.285ZM277.18 58.2733C279.593 54.3417 282.72 51.259 286.562 49.0251C290.494 46.7913 294.962 45.6743 299.965 45.6743V65.377H295.006C289.109 65.377 284.641 66.762 281.603 69.5319C278.654 72.3019 277.18 77.1271 277.18 84.0073V121H258.416V46.7466H277.18V58.2733ZM322.12 37.9005C318.814 37.9005 316.044 36.873 313.81 34.8178C311.666 32.6733 310.594 30.0373 310.594 26.91C310.594 23.7826 311.666 21.1913 313.81 19.1361C316.044 16.9916 318.814 15.9194 322.12 15.9194C325.426 15.9194 328.152 16.9916 330.296 19.1361C332.53 21.1913 333.647 23.7826 333.647 26.91C333.647 30.0373 332.53 32.6733 330.296 34.8178C328.152 36.873 325.426 37.9005 322.12 37.9005ZM331.369 46.7466V121H312.604V46.7466H331.369ZM371.755 62.1602V98.0806C371.755 100.583 372.336 102.414 373.497 103.576C374.748 104.648 376.803 105.184 379.663 105.184H388.375V121H376.58C360.764 121 352.856 113.316 352.856 97.9466V62.1602H344.01V46.7466H352.856V28.3843H371.755V46.7466H388.375V62.1602H371.755ZM423.718 62.1602V98.0806C423.718 100.583 424.299 102.414 425.461 103.576C426.712 104.648 428.767 105.184 431.626 105.184H440.338V121H428.543C412.728 121 404.82 113.316 404.82 97.9466V62.1602H395.974V46.7466H404.82V28.3843H423.718V46.7466H440.338V62.1602H423.718Z" fill="white"/>
<path d="M462.144 121.938C458.749 121.938 455.934 120.911 453.7 118.855C451.556 116.711 450.484 114.075 450.484 110.948C450.484 107.82 451.556 105.229 453.7 103.174C455.934 101.029 458.749 99.9571 462.144 99.9571C465.451 99.9571 468.176 101.029 470.32 103.174C472.465 105.229 473.537 107.82 473.537 110.948C473.537 114.075 472.465 116.711 470.32 118.855C468.176 120.911 465.451 121.938 462.144 121.938Z" fill="#FC8923"/>
</svg>
